<svg id="Calque_1" data-name="Calque 1" xmlns="http://www.w3.org/2000/svg" xmlns:xlink="http://www.w3.org/1999/xlink" viewBox="0 0 1920 1080"><defs><style>.cls-1{fill:none;}.cls-2{fill:#606060;}.cls-3{fill:#171717;}.cls-4{fill:url(#Nouveau_motif);}</style><pattern id="Nouveau_motif" data-name="Nouveau motif" width="473.2" height="371.41" patternUnits="userSpaceOnUse" viewBox="0 0 473.2 371.42"><rect class="cls-1" width="473.2" height="371.41"/><path class="cls-2" d="M-296.87,591.8l10.88-6.39c13.69-8,14.57-25.39,3.71-43.86-7.31-12.45-17.58-16.32-28.82-9.72l-7.51,4.42Zm2.67-8.18-17.54-44.8,3.37-2c8.12-4.78,15.8-1.6,21.42,8,8.89,15.13,8.55,29.52-1.95,35.69Z"/><path class="cls-2" d="M-260.3,570.31l22.89-13.46-2.17-5.57L-257.74,562-265.82,541l14.82-8.71-2.16-5.57-14.9,8.75-7.06-18,17.59-10.34-2.17-5.57L-282,514.76Z"/><path class="cls-2" d="M-222.69,548.2l5.74-3.37-8.68-63.23-5.17,3,5.39,34.8c1,6.64,2.26,13.78,3.42,20.48l-.24.15c-3.52-5.45-7.22-10.92-10.78-16.17l-18.27-27.23-4.91,2.89Z"/><path class="cls-2" d="M-183,524.88l6-3.52-7.17-37.49c-1-4.87-1.88-9.55-3.07-14.25l.25-.14c2.26,4.1,4.64,8.27,6.84,12l18.66,30.73,6.08-3.57-13.18-60.58-4.7,2.76,7.63,33.1c1.49,6.43,3,13,4.56,19.5l-.25.15c-3.23-5.52-6.49-11.1-9.78-16.44l-17-27.61-4.35,2.56,6.28,33.89c1.38,6.49,2.62,13.26,3.93,19.87l-.25.15c-2.92-5.67-6.1-11.26-9.07-16.85l-15.82-28.28-4.9,2.87Z"/><path class="cls-2" d="M-140,499.63l22.89-13.46-2.16-5.57-18.16,10.67-8.08-20.91,14.82-8.71-2.17-5.57-14.89,8.75-7.06-18,17.58-10.34-2.16-5.57-22.35,13.14Z"/><path class="cls-2" d="M-109,481.37l13-7.65c9.62-5.66,13.9-14.81,7.27-26.1-3.42-5.82-8.6-7.21-13.48-5.95l-.14-.33a15.1,15.1,0,0,0,1.56-18c-4.31-7.33-11.38-8.4-19.15-3.84l-10.81,6.36Zm-7.6-34.43-7.33-18.75,5.58-3.27c6.12-3.6,10.47-2.49,13.2,2.15,3.36,5.73,2.09,11.91-5.62,16.44Zm10.32,26.44-8.42-21.71,7.14-4.2c6-3.51,11.33-1.92,14.35,3.21,4.61,7.85,1.67,14-6,18.55Z"/><path class="cls-2" d="M-44.82,444.9c4.9-2.88,7.09-7.72,8.2-12.7l-4.48-2.59c-1,4.35-2.66,7.67-5.93,9.59-7.23,4.25-14.21-.56-19.63-9.79-7.23-12.3-9.38-30,.25-35.64,3.1-1.83,6.59-.9,10.07,1.46l1.53-5.17c-4.56-3.08-9.79-4.36-14.4-1.65-12.56,7.38-11.41,28.46-2,44.46C-64.08,445-54.06,450.33-44.82,444.9Z"/><path class="cls-2" d="M-14.08,426.83c11.64-6.84,10.4-27.48,1.29-43-7.54-12.83-17.47-18.33-26.5-13-11.64,6.84-10.4,27.49-1.29,43C-33,426.64-23.11,432.14-14.08,426.83Zm-2.8-5.35c-6.44,3.79-13.26-1.12-19.08-11-7-11.9-9.24-29.15-.53-34.27,6.44-3.79,13.26,1.12,19.08,11C-10.41,399.11-8.17,416.36-16.88,421.48Z"/><path class="cls-2" d="M-15,524.68-9,521.31l-6.27-37.65c-.9-4.9-1.64-9.6-2.71-14.32l.25-.14c2.15,4.15,4.43,8.38,6.54,12.19L6.76,512.57l6.16-3.42L1.21,448.26l-4.77,2.65,6.83,33.27c1.33,6.46,2.67,13.08,4.08,19.61l-.25.14C4,498.33.88,492.67-2.27,487.26l-16.29-28L-23,461.7l5.46,34c1.21,6.53,2.29,13.32,3.44,20l-.25.14c-2.78-5.73-5.82-11.4-8.66-17.06l-15.14-28.66-5,2.76Z"/><path class="cls-2" d="M28.52,500.47l23.21-12.89-2-5.63L31.29,492.18l-7.57-21.1,15-8.35-2-5.62L21.61,465.5,15,447.35l17.83-9.91-2-5.62L8.13,444.41Z"/><path class="cls-2" d="M60,483l13.19-7.33c9.76-5.42,14.26-14.47,7.9-25.92-3.28-5.9-8.41-7.41-13.33-6.27l-.13-.34a15.08,15.08,0,0,0,2-18c-4.12-7.42-11.17-8.67-19-4.29l-11,6.09Zm-6.76-34.6-6.87-18.92L52,426.31c6.21-3.45,10.52-2.24,13.14,2.47,3.23,5.81,1.81,12-6,16.3Zm9.67,26.68L55,453.15l7.25-4c6.05-3.36,11.37-1.65,14.26,3.55,4.42,8,1.33,14.08-6.45,18.4Z"/><path class="cls-2" d="M125,448.07c5-2.76,7.28-7.55,8.52-12.5l-4.42-2.7c-1.1,4.32-2.85,7.6-6.16,9.45-7.34,4.07-14.19-.91-19.39-10.27-6.93-12.47-8.66-30.2,1.11-35.63,3.14-1.74,6.6-.73,10,1.71l1.65-5.13c-4.47-3.19-9.67-4.6-14.35-2-12.74,7.08-12.1,28.18-3.08,44.4C105.79,447.72,115.68,453.27,125,448.07Z"/><path class="cls-2" d="M156.21,430.75c11.8-6.56,11.06-27.23,2.33-42.94-7.23-13-17-18.75-26.17-13.67-11.8,6.56-11.06,27.23-2.33,42.94C137.27,430.1,147.06,435.84,156.21,430.75Zm-2.66-5.42c-6.53,3.63-13.23-1.44-18.82-11.49-6.7-12.07-8.52-29.37.31-34.28,6.52-3.62,13.22,1.44,18.81,11.5C160.55,403.12,162.38,420.42,153.55,425.33Z"/><path class="cls-2" d="M179.57,416.54l11-6.13c13.88-7.72,15.18-25,4.77-43.76-7-12.62-17.18-16.74-28.57-10.41l-7.62,4.24Zm2.86-8.12L166,363.22l3.41-1.9c8.24-4.58,15.84-1.21,21.22,8.48,8.53,15.34,7.84,29.72-2.8,35.63Z"/><path class="cls-2" d="M216.65,395.93,239.85,383l-2-5.62-18.41,10.23-7.57-21.11,15-8.35-2-5.62L209.73,361l-6.62-18.14,17.83-9.91-2-5.63-22.66,12.6Z"/><path class="cls-2" d="M176.33,591.8l10.88-6.39c13.69-8,14.57-25.39,3.71-43.86-7.31-12.45-17.58-16.32-28.82-9.72l-7.51,4.42Zm2.67-8.18-17.54-44.8,3.36-2c8.13-4.78,15.81-1.6,21.43,8,8.89,15.13,8.55,29.52-1.95,35.69Z"/><path class="cls-2" d="M212.89,570.31l22.89-13.46-2.16-5.57L215.46,562,207.38,541l14.82-8.71L220,526.76l-14.9,8.75-7.06-18,17.59-10.34-2.17-5.57-22.35,13.14Z"/><path class="cls-2" d="M250.51,548.2l5.74-3.37-8.68-63.23-5.17,3,5.39,34.8c1,6.64,2.26,13.78,3.42,20.48l-.25.15c-3.51-5.45-7.21-10.92-10.77-16.17l-18.27-27.23L217,499.56Z"/><path class="cls-2" d="M290.19,524.88l6-3.52L289,483.87c-1-4.87-1.87-9.55-3.06-14.25l.25-.14c2.26,4.1,4.63,8.27,6.84,12l18.66,30.73,6.08-3.57-13.18-60.58-4.7,2.76,7.63,33.1c1.49,6.43,3,13,4.55,19.5l-.24.15c-3.23-5.52-6.49-11.1-9.78-16.44l-17-27.61-4.35,2.56L287,496c1.38,6.49,2.62,13.26,3.92,19.87l-.24.15c-2.92-5.67-6.1-11.26-9.07-16.85L265.8,470.89l-4.9,2.87Z"/><path class="cls-2" d="M333.15,499.63,356,486.17l-2.17-5.57-18.16,10.67-8.07-20.91,14.82-8.71-2.17-5.57-14.89,8.75-7.07-18,17.59-10.34-2.16-5.57-22.35,13.14Z"/><path class="cls-2" d="M364.22,481.37l13-7.65c9.63-5.66,13.91-14.81,7.27-26.1-3.42-5.82-8.59-7.21-13.47-5.95l-.14-.33a15.1,15.1,0,0,0,1.56-18c-4.31-7.33-11.39-8.4-19.15-3.84l-10.82,6.36Zm-7.6-34.43-7.33-18.75,5.57-3.27c6.13-3.6,10.47-2.49,13.2,2.15,3.37,5.73,2.1,11.91-5.61,16.44Zm10.32,26.44-8.42-21.71,7.14-4.2c6-3.51,11.33-1.92,14.35,3.21,4.61,7.85,1.67,14-6,18.55Z"/><path class="cls-2" d="M428.37,444.9c4.9-2.88,7.1-7.72,8.21-12.7l-4.48-2.59c-1,4.35-2.66,7.67-5.93,9.59-7.23,4.25-14.21-.56-19.63-9.79-7.23-12.3-9.39-30,.24-35.64,3.11-1.83,6.59-.9,10.08,1.46l1.52-5.17c-4.55-3.08-9.78-4.36-14.39-1.65-12.56,7.38-11.41,28.46-2,44.46C409.12,445,419.14,450.33,428.37,444.9Z"/><path class="cls-2" d="M459.12,426.83c11.64-6.84,10.4-27.48,1.29-43-7.55-12.83-17.47-18.33-26.5-13-11.64,6.84-10.4,27.49-1.29,43C440.16,426.64,450.09,432.14,459.12,426.83Zm-2.8-5.35c-6.44,3.79-13.26-1.12-19.08-11-7-11.9-9.24-29.15-.53-34.27,6.44-3.79,13.25,1.12,19.08,11C462.79,399.11,465,416.36,456.32,421.48Z"/><path class="cls-2" d="M238.33,469.8l10.88-6.39c13.69-8.05,14.57-25.39,3.71-43.86-7.31-12.45-17.58-16.32-28.82-9.72l-7.51,4.42Zm2.67-8.18-17.54-44.8,3.36-2c8.13-4.78,15.81-1.6,21.43,8,8.89,15.13,8.55,29.52-1.95,35.69Z"/><path class="cls-2" d="M274.89,448.31l22.89-13.46-2.16-5.57L277.46,440,269.38,419l14.82-8.71L282,404.76l-14.9,8.75-7.06-18,17.59-10.34-2.17-5.57-22.35,13.14Z"/><path class="cls-2" d="M312.51,426.2l5.74-3.37-8.68-63.23-5.17,3,5.39,34.8c1,6.64,2.26,13.78,3.42,20.48l-.25.15c-3.51-5.45-7.21-10.92-10.77-16.17l-18.27-27.23L279,377.56Z"/><path class="cls-2" d="M348.46,405.07l22.88-13.45L369.18,386,351,396.72l-8.08-20.92,14.82-8.71-2.16-5.57-14.9,8.76-7.06-18L351.23,342l-2.17-5.57-22.35,13.13Z"/><path class="cls-2" d="M458.16,524.68l6.07-3.37L458,483.66c-.9-4.9-1.64-9.6-2.72-14.32l.25-.14c2.16,4.15,4.44,8.38,6.55,12.19L480,512.57l6.16-3.42-11.7-60.89-4.77,2.65,6.83,33.27c1.33,6.46,2.67,13.08,4.08,19.61l-.25.14c-3.09-5.6-6.22-11.26-9.37-16.67l-16.3-28-4.41,2.45,5.47,34c1.21,6.53,2.29,13.32,3.44,20l-.25.14c-2.78-5.73-5.83-11.4-8.66-17.06l-15.14-28.66-5,2.76Z"/><path class="cls-2" d="M501.72,500.47l23.21-12.89-2-5.63-18.41,10.23-7.57-21.1,15-8.35-2-5.62-15.1,8.39-6.62-18.15L506,437.44l-2-5.62-22.66,12.59Z"/><path class="cls-2" d="M533.22,483l13.19-7.33c9.76-5.42,14.26-14.47,7.9-25.92-3.28-5.9-8.42-7.41-13.33-6.27l-.13-.34a15.08,15.08,0,0,0,2-18c-4.12-7.42-11.17-8.67-19-4.29l-11,6.09Zm-6.76-34.6-6.87-18.92,5.65-3.14c6.21-3.45,10.52-2.24,13.14,2.47,3.23,5.81,1.8,12-6,16.3Zm9.67,26.68-7.89-21.9,7.25-4c6-3.36,11.37-1.65,14.26,3.55,4.42,8,1.33,14.08-6.45,18.4Z"/><path class="cls-2" d="M598.24,448.07c5-2.76,7.28-7.55,8.51-12.5l-4.42-2.7c-1.09,4.32-2.84,7.6-6.16,9.45-7.33,4.07-14.18-.91-19.38-10.27-6.93-12.47-8.66-30.2,1.1-35.63,3.15-1.74,6.61-.73,10,1.71l1.65-5.13c-4.48-3.19-9.67-4.6-14.35-2-12.74,7.08-12.1,28.18-3.09,44.4C579,447.72,588.88,453.27,598.24,448.07Z"/><path class="cls-2" d="M629.41,430.75c11.8-6.56,11.06-27.23,2.33-42.94-7.23-13-17-18.75-26.17-13.67-11.8,6.56-11.06,27.23-2.33,42.94C610.47,430.1,620.26,435.84,629.41,430.75Zm-2.67-5.42c-6.52,3.63-13.22-1.44-18.81-11.49-6.7-12.07-8.53-29.37.3-34.28,6.53-3.62,13.23,1.44,18.82,11.5C633.75,403.12,635.57,420.42,626.74,425.33Z"/><path class="cls-2" d="M652.77,416.54l11-6.13c13.88-7.72,15.18-25,4.77-43.76-7-12.62-17.18-16.74-28.57-10.41l-7.62,4.24Zm2.86-8.12-16.45-45.2,3.41-1.9c8.25-4.58,15.85-1.21,21.23,8.48,8.53,15.34,7.83,29.72-2.81,35.63Z"/><path class="cls-2" d="M689.84,395.93,713.05,383l-2-5.62-18.41,10.23L685,366.54l15-8.35-2-5.62L682.93,361l-6.62-18.14,17.83-9.91-2-5.63-22.66,12.6Z"/><path class="cls-2" d="M-296.87,220.38-286,214c13.69-8.05,14.57-25.39,3.71-43.86-7.31-12.44-17.58-16.32-28.82-9.71l-7.51,4.42Zm2.67-8.18-17.54-44.79,3.37-2c8.12-4.77,15.8-1.59,21.42,8,8.89,15.14,8.55,29.52-1.95,35.69Z"/><path class="cls-2" d="M-260.3,198.89l22.89-13.45-2.17-5.57-18.16,10.67-8.08-20.91,14.82-8.71-2.16-5.58-14.9,8.76-7.06-18,17.59-10.34-2.17-5.57L-282,143.34Z"/><path class="cls-2" d="M-222.69,176.78l5.74-3.37-8.68-63.23-5.17,3,5.39,34.8c1,6.65,2.26,13.79,3.42,20.49l-.24.14c-3.52-5.44-7.22-10.91-10.78-16.16l-18.27-27.23-4.91,2.88Z"/><path class="cls-2" d="M-183,153.46l6-3.51-7.17-37.49c-1-4.87-1.88-9.56-3.07-14.25l.25-.15c2.26,4.11,4.64,8.28,6.84,12l18.66,30.74,6.08-3.57-13.18-60.59-4.7,2.77,7.63,33.09c1.49,6.43,3,13,4.56,19.51l-.25.14c-3.23-5.52-6.49-11.1-9.78-16.43l-17-27.61-4.35,2.55,6.28,33.89c1.38,6.5,2.62,13.27,3.93,19.88l-.25.14c-2.92-5.66-6.1-11.25-9.07-16.85L-207.4,99.47l-4.9,2.88Z"/><path class="cls-2" d="M-140,128.21l22.89-13.45-2.16-5.57-18.16,10.67-8.08-20.92,14.82-8.71-2.17-5.57-14.89,8.76-7.06-18,17.58-10.34-2.16-5.57-22.35,13.13Z"/><path class="cls-2" d="M-109,110l13-7.64c9.62-5.66,13.9-14.82,7.27-26.11-3.42-5.81-8.6-7.2-13.48-5.94l-.14-.34a15.1,15.1,0,0,0,1.56-18c-4.31-7.32-11.38-8.4-19.15-3.84l-10.81,6.36Zm-7.6-34.42-7.33-18.75,5.58-3.28c6.12-3.6,10.47-2.49,13.2,2.16,3.36,5.72,2.09,11.91-5.62,16.44ZM-106.26,102l-8.42-21.71,7.14-4.2c6-3.51,11.33-1.93,14.35,3.21,4.61,7.84,1.67,14-6,18.54Z"/><path class="cls-2" d="M-44.82,73.49c4.9-2.88,7.09-7.72,8.2-12.7L-41.1,58.2c-1,4.34-2.66,7.67-5.93,9.59C-54.26,72-61.24,67.23-66.66,58c-7.23-12.3-9.38-30,.25-35.65,3.1-1.82,6.59-.89,10.07,1.47l1.53-5.17c-4.56-3.09-9.79-4.37-14.4-1.65-12.56,7.38-11.41,28.46-2,44.46C-64.08,73.61-54.06,78.92-44.82,73.49Z"/><path class="cls-2" d="M-14.08,55.42c11.64-6.84,10.4-27.48,1.29-43C-20.33-.4-30.26-5.9-39.29-.59c-11.64,6.84-10.4,27.49-1.29,43C-33,55.23-23.11,60.73-14.08,55.42Zm-2.8-5.35C-23.32,53.85-30.14,49-36,39c-7-11.9-9.24-29.15-.53-34.27C-30,1-23.23,5.88-17.41,15.8-10.41,27.7-8.17,45-16.88,50.07Z"/><path class="cls-2" d="M-51.87,162.38-41,156c13.69-8.05,14.57-25.39,3.71-43.86-7.31-12.44-17.58-16.32-28.82-9.71l-7.51,4.42Zm2.67-8.18-17.54-44.79,3.37-2c8.12-4.77,15.8-1.59,21.42,8,8.89,15.14,8.55,29.52-1.95,35.69Z"/><path class="cls-2" d="M-15.3,140.89,7.59,127.44l-2.17-5.57-18.16,10.67-8.08-20.91L-6,102.92l-2.16-5.58-14.9,8.76-7.06-18,17.59-10.34-2.17-5.57L-37,85.34Z"/><path class="cls-2" d="M22.31,118.78l5.74-3.37L19.37,52.18l-5.17,3L19.59,90c1,6.65,2.26,13.79,3.42,20.49l-.24.14C19.25,105.21,15.55,99.74,12,94.49L-6.28,67.26l-4.91,2.88Z"/><path class="cls-2" d="M-306.87,403.38-296,397c13.69-8.05,14.57-25.39,3.71-43.86-7.31-12.44-17.58-16.32-28.82-9.71l-7.51,4.42Zm2.67-8.18-17.54-44.79,3.37-2c8.12-4.77,15.8-1.59,21.42,8,8.89,15.14,8.55,29.52-1.95,35.69Z"/><path class="cls-2" d="M-270.3,381.89l22.89-13.45-2.17-5.57-18.16,10.67-8.08-20.91,14.82-8.71-2.16-5.58-14.9,8.76-7.06-18,17.59-10.34-2.17-5.57L-292,326.34Z"/><path class="cls-2" d="M-232.69,359.78l5.74-3.37-8.68-63.23-5.17,3,5.39,34.8c1,6.65,2.26,13.79,3.42,20.49l-.24.14c-3.52-5.44-7.22-10.91-10.78-16.16l-18.27-27.23-4.91,2.88Z"/><path class="cls-2" d="M-193,336.46l6-3.51-7.17-37.49c-1-4.87-1.88-9.56-3.07-14.25l.25-.15c2.26,4.11,4.64,8.28,6.84,12l18.66,30.74,6.08-3.57-13.18-60.59-4.7,2.77,7.63,33.09c1.49,6.43,3,13,4.56,19.51l-.25.14c-3.23-5.52-6.49-11.1-9.78-16.43l-17-27.61-4.35,2.55,6.28,33.89c1.38,6.5,2.62,13.27,3.93,19.88l-.25.14c-2.92-5.66-6.1-11.25-9.07-16.85l-15.82-28.28-4.9,2.88Z"/><path class="cls-2" d="M-150,311.21l22.89-13.45-2.16-5.57-18.16,10.67-8.08-20.92,14.82-8.71-2.17-5.57-14.89,8.76-7.06-18,17.58-10.34-2.16-5.57-22.35,13.13Z"/><path class="cls-2" d="M-119,293l13-7.64c9.62-5.66,13.9-14.82,7.27-26.11-3.42-5.81-8.6-7.2-13.48-5.94l-.14-.34a15.1,15.1,0,0,0,1.56-18c-4.31-7.32-11.38-8.4-19.15-3.84l-10.81,6.36Zm-7.6-34.42-7.33-18.75,5.58-3.28c6.12-3.6,10.47-2.49,13.2,2.16,3.36,5.72,2.09,11.91-5.62,16.44ZM-116.26,285l-8.42-21.71,7.14-4.2c6-3.51,11.33-1.93,14.35,3.21,4.61,7.84,1.67,14-6,18.54Z"/><path class="cls-2" d="M-54.82,256.49c4.9-2.88,7.09-7.72,8.2-12.7l-4.48-2.59c-1,4.34-2.66,7.67-5.93,9.59-7.23,4.25-14.21-.56-19.63-9.79-7.23-12.3-9.38-30,.25-35.65,3.1-1.82,6.59-.89,10.07,1.47l1.53-5.17c-4.56-3.09-9.79-4.37-14.4-1.65-12.56,7.38-11.41,28.46-2,44.46C-74.08,256.61-64.06,261.92-54.82,256.49Z"/><path class="cls-2" d="M-24.08,238.42c11.64-6.84,10.4-27.48,1.29-43-7.54-12.84-17.47-18.34-26.5-13-11.64,6.84-10.4,27.49-1.29,43C-43,238.23-33.11,243.73-24.08,238.42Zm-2.8-5.35C-33.32,236.85-40.14,232-46,222c-7-11.9-9.24-29.15-.53-34.27,6.44-3.78,13.26,1.12,19.08,11C-20.41,210.7-18.17,228-26.88,233.07Z"/><path class="cls-2" d="M-1.07,223.65,9.8,217.26c13.69-8,14.57-25.39,3.72-43.86C6.2,161-4.06,157.08-15.3,163.68l-7.52,4.42Zm2.66-8.18-17.53-44.79,3.36-2c8.13-4.78,15.81-1.6,21.42,8,8.9,15.13,8.55,29.52-1.94,35.69Z"/><path class="cls-2" d="M-118.87,390.38-108,384c13.69-8.05,14.57-25.39,3.71-43.86-7.31-12.44-17.58-16.32-28.82-9.71l-7.51,4.42Zm2.67-8.18-17.54-44.79,3.37-2c8.12-4.77,15.8-1.59,21.42,8,8.89,15.14,8.55,29.52-2,35.69Z"/><path class="cls-2" d="M-82.3,368.89l22.89-13.45-2.17-5.57-18.16,10.67-8.08-20.91L-73,330.92l-2.16-5.58-14.9,8.76-7.06-18,17.59-10.34-2.17-5.57L-104,313.34Z"/><path class="cls-2" d="M-44.69,346.78l5.74-3.37-8.68-63.23-5.17,3,5.39,34.8c1,6.65,2.26,13.79,3.42,20.49l-.24.14c-3.52-5.44-7.22-10.91-10.78-16.16l-18.27-27.23-4.91,2.88Z"/><path class="cls-2" d="M-5,323.46,1,320-6.2,282.46c-1-4.87-1.88-9.56-3.07-14.25l.25-.15c2.26,4.11,4.64,8.28,6.84,12l18.66,30.74,6.08-3.57L9.38,246.67l-4.7,2.77,7.63,33.09c1.49,6.43,3,13,4.56,19.51l-.25.14c-3.23-5.52-6.49-11.1-9.78-16.43l-17-27.61-4.35,2.55,6.28,33.89c1.38,6.5,2.62,13.27,3.93,19.88l-.25.14c-2.92-5.66-6.1-11.25-9.07-16.85L-29.4,269.47l-4.9,2.88Z"/><path class="cls-2" d="M-15,153.26-9,149.89l-6.27-37.65c-.9-4.89-1.64-9.6-2.71-14.32l.25-.14c2.15,4.16,4.43,8.39,6.54,12.19L6.76,141.15l6.16-3.42L1.21,76.84l-4.77,2.65,6.83,33.27c1.33,6.47,2.67,13.08,4.08,19.61l-.25.14C4,126.91.88,121.26-2.27,115.85l-16.29-28L-23,90.28l5.46,34c1.21,6.53,2.29,13.33,3.44,20l-.25.14c-2.78-5.74-5.82-11.4-8.66-17.07L-38.12,98.7l-5,2.76Z"/><path class="cls-2" d="M28.52,129.06l23.21-12.9-2-5.62L31.29,120.77,23.72,99.66l15-8.34-2-5.63-15.11,8.4L15,75.94,32.82,66l-2-5.62L8.13,73Z"/><path class="cls-2" d="M60,111.55l13.19-7.33C83,98.8,87.47,89.75,81.11,78.31,77.83,72.41,72.7,70.9,67.78,72l-.13-.34a15.08,15.08,0,0,0,2-18c-4.12-7.42-11.17-8.67-19-4.3l-11,6.09ZM53.26,77,46.39,58,52,54.9c6.21-3.45,10.52-2.24,13.14,2.47,3.23,5.8,1.81,12-6,16.3Zm9.67,26.69L55,81.73l7.25-4c6.05-3.36,11.37-1.64,14.26,3.56C81,89.21,77.88,95.33,70.1,99.65Z"/><path class="cls-2" d="M125,76.65c5-2.76,7.28-7.54,8.52-12.5l-4.42-2.69c-1.1,4.31-2.85,7.6-6.16,9.44-7.34,4.08-14.19-.9-19.39-10.26C96.66,48.17,94.93,30.43,104.7,25c3.14-1.75,6.6-.73,10,1.71l1.65-5.13c-4.47-3.2-9.67-4.6-14.35-2C89.29,26.67,89.93,47.77,99,64,105.79,76.3,115.68,81.86,125,76.65Z"/><path class="cls-2" d="M156.21,59.33c11.8-6.55,11.06-27.22,2.33-42.94-7.23-13-17-18.75-26.17-13.66C120.57,9.29,121.31,30,130,45.67,137.27,58.68,147.06,64.42,156.21,59.33Zm-2.66-5.42c-6.53,3.63-13.23-1.44-18.82-11.49-6.7-12.06-8.52-29.36.31-34.27,6.52-3.63,13.22,1.44,18.81,11.49C160.55,31.71,162.38,49,153.55,53.91Z"/><path class="cls-2" d="M179.57,45.12l11-6.13c13.88-7.71,15.18-25,4.77-43.75-7-12.62-17.18-16.74-28.57-10.41l-7.62,4.23ZM182.43,37,166-8.2l3.41-1.89c8.24-4.58,15.84-1.21,21.22,8.47,8.53,15.35,7.84,29.72-2.8,35.64Z"/><path class="cls-2" d="M216.65,24.52l23.2-12.9-2-5.62L219.41,16.23l-7.57-21.1,15-8.35-2-5.62-15.11,8.39L203.11-28.6l17.83-9.91-2-5.62L196.25-31.54Z"/><path class="cls-2" d="M20.28,220.61l13.13-7.44c9.7-5.51,14.13-14.6,7.67-26-3.33-5.87-8.48-7.33-13.38-6.15l-.13-.34a15.08,15.08,0,0,0,1.83-18c-4.19-7.39-11.25-8.58-19.08-4.14L-.6,164.73Zm-7.06-34.54-7-18.86L11.81,164c6.18-3.51,10.5-2.33,13.16,2.35,3.28,5.78,1.91,12-5.87,16.35Zm9.9,26.6L15,190.83l7.21-4.09c6-3.41,11.36-1.74,14.3,3.44,4.49,7.91,1.45,14.06-6.29,18.45Z"/><path class="cls-2" d="M85,185.15c4.94-2.8,7.21-7.61,8.4-12.57L89,169.92c-1.06,4.32-2.78,7.62-6.08,9.49-7.3,4.14-14.2-.78-19.48-10.09-7-12.41-8.91-30.13.8-35.64,3.13-1.77,6.6-.79,10,1.62l1.61-5.14c-4.51-3.16-9.71-4.52-14.37-1.88-12.68,7.19-11.85,28.29-2.7,44.43C65.74,185,75.68,190.43,85,185.15Z"/><path class="cls-2" d="M116,167.56c11.75-6.66,10.83-27.32,2-43-7.34-12.95-17.18-18.6-26.29-13.44-11.74,6.66-10.82,27.32-2,43C97.07,167.07,106.9,172.73,116,167.56Zm-2.71-5.4c-6.49,3.69-13.24-1.32-18.91-11.33-6.81-12-8.78-29.29,0-34.27,6.5-3.68,13.24,1.33,18.91,11.33C120.11,139.9,122.09,157.18,113.3,162.16Z"/><path class="cls-2" d="M139.25,153.15l11-6.23c13.82-7.83,15-25.16,4.4-43.79C147.5,90.57,137.3,86.53,126,93l-7.58,4.3ZM142,145,125.2,100,128.6,98c8.2-4.65,15.83-1.35,21.29,8.29C158.55,121.58,158,136,147.4,142Z"/><path class="cls-2" d="M176.14,132.22l23.1-13.09-2.08-5.61-18.32,10.39-7.75-21L186,94.4,184,88.79l-15,8.52-6.78-18.09,17.74-10.06-2.07-5.6L155.26,76.34Z"/><path class="cls-2" d="M176.33,220.38,187.21,214c13.69-8.05,14.57-25.39,3.71-43.86-7.31-12.44-17.58-16.32-28.82-9.71l-7.51,4.42ZM179,212.2l-17.54-44.79,3.36-2c8.13-4.77,15.81-1.59,21.43,8,8.89,15.14,8.55,29.52-1.95,35.69Z"/><path class="cls-2" d="M212.89,198.89l22.89-13.45-2.16-5.57-18.16,10.67-8.08-20.91,14.82-8.71L220,155.34l-14.9,8.76-7.06-18,17.59-10.34-2.17-5.57-22.35,13.13Z"/><path class="cls-2" d="M250.51,176.78l5.74-3.37-8.68-63.23-5.17,3,5.39,34.8c1,6.65,2.26,13.79,3.42,20.49l-.25.14c-3.51-5.44-7.21-10.91-10.77-16.16l-18.27-27.23L217,128.14Z"/><path class="cls-2" d="M290.19,153.46l6-3.51L289,112.46c-1-4.87-1.87-9.56-3.06-14.25l.25-.15c2.26,4.11,4.63,8.28,6.84,12l18.66,30.74,6.08-3.57L304.58,76.67l-4.7,2.77,7.63,33.09c1.49,6.43,3,13,4.55,19.51l-.24.14c-3.23-5.52-6.49-11.1-9.78-16.43l-17-27.61-4.35,2.55L287,124.58c1.38,6.5,2.62,13.27,3.92,19.88l-.24.14c-2.92-5.66-6.1-11.25-9.07-16.85L265.8,99.47l-4.9,2.88Z"/><path class="cls-2" d="M333.15,128.21,356,114.76l-2.17-5.57-18.16,10.67-8.07-20.92,14.82-8.71-2.17-5.57L325.4,93.42l-7.07-18L335.92,65.1l-2.16-5.57L311.41,72.66Z"/><path class="cls-2" d="M364.22,110l13-7.64c9.63-5.66,13.91-14.82,7.27-26.11-3.42-5.81-8.59-7.2-13.47-5.94l-.14-.34a15.1,15.1,0,0,0,1.56-18c-4.31-7.32-11.39-8.4-19.15-3.84L342.47,54.4Zm-7.6-34.42-7.33-18.75,5.57-3.28c6.13-3.6,10.47-2.49,13.2,2.16,3.37,5.72,2.1,11.91-5.61,16.44ZM366.94,102l-8.42-21.71,7.14-4.2c6-3.51,11.33-1.93,14.35,3.21,4.61,7.84,1.67,14-6,18.54Z"/><path class="cls-2" d="M428.37,73.49c4.9-2.88,7.1-7.72,8.21-12.7L432.1,58.2c-1,4.34-2.66,7.67-5.93,9.59C418.94,72,412,67.23,406.54,58c-7.23-12.3-9.39-30,.24-35.65,3.11-1.82,6.59-.89,10.08,1.47l1.52-5.17C413.83,15.56,408.6,14.28,404,17c-12.56,7.38-11.41,28.46-2,44.46C409.12,73.61,419.14,78.92,428.37,73.49Z"/><path class="cls-2" d="M459.12,55.42c11.64-6.84,10.4-27.48,1.29-43C452.86-.4,442.94-5.9,433.91-.59c-11.64,6.84-10.4,27.49-1.29,43C440.16,55.23,450.09,60.73,459.12,55.42Zm-2.8-5.35c-6.44,3.78-13.26-1.12-19.08-11-7-11.9-9.24-29.15-.53-34.27C443.15,1,450,5.88,455.79,15.8,462.79,27.7,465,45,456.32,50.07Z"/><path class="cls-2" d="M36.62,305.06c4.9-2.88,7.1-7.72,8.21-12.7l-4.49-2.59c-1,4.34-2.66,7.66-5.92,9.59-7.24,4.25-14.21-.56-19.64-9.79-7.23-12.3-9.38-30,.25-35.65,3.1-1.82,6.59-.89,10.07,1.47l1.53-5.17c-4.55-3.09-9.78-4.37-14.4-1.65C-.33,256,.82,277,10.23,293,17.37,305.17,27.39,310.48,36.62,305.06Z"/><path class="cls-2" d="M67.36,287c11.64-6.84,10.4-27.49,1.29-43-7.54-12.84-17.46-18.34-26.49-13-11.64,6.84-10.4,27.48-1.29,43C48.41,286.8,58.33,292.3,67.36,287Zm-2.79-5.35c-6.44,3.78-13.26-1.12-19.09-11-7-11.9-9.23-29.15-.53-34.27,6.44-3.78,13.26,1.12,19.09,11C71,259.26,73.27,276.52,64.57,281.64Z"/><path class="cls-2" d="M90.37,272.22l10.88-6.4c13.69-8,14.57-25.38,3.71-43.86-7.31-12.44-17.58-16.32-28.82-9.71l-7.51,4.42ZM93,264,75.5,219.24l3.36-2c8.13-4.78,15.81-1.6,21.43,8,8.89,15.13,8.55,29.52-2,35.69Z"/><path class="cls-2" d="M126.94,250.72l22.89-13.45-2.17-5.57L129.5,242.37l-8.08-20.91,14.82-8.71-2.16-5.57-14.9,8.75-7.06-18,17.59-10.34L127.54,182l-22.35,13.14Z"/><path class="cls-2" d="M238.33,98.38,249.21,92c13.69-8,14.57-25.39,3.71-43.86-7.31-12.44-17.58-16.32-28.82-9.71l-7.51,4.42ZM241,90.2,223.46,45.41l3.36-2c8.13-4.77,15.81-1.59,21.43,8,8.89,15.14,8.55,29.52-1.95,35.69Z"/><path class="cls-2" d="M274.89,76.89l22.89-13.45-2.16-5.57L277.46,68.54l-8.08-20.91,14.82-8.71L282,33.34l-14.9,8.76-7.06-18,17.59-10.34L275.5,8.21,253.15,21.34Z"/><path class="cls-2" d="M312.51,54.78l5.74-3.37-8.68-63.23-5.17,3L309.79,26c1,6.65,2.26,13.79,3.42,20.49l-.25.14c-3.51-5.44-7.21-10.91-10.77-16.16L283.92,3.26,279,6.14Z"/><path class="cls-2" d="M348.46,33.66,371.34,20.2l-2.16-5.57L351,25.3,342.94,4.39l14.82-8.71L355.6-9.89,340.7-1.14l-7.06-18,17.59-10.34L349.06-35,326.71-21.89Z"/><path class="cls-2" d="M32.33,390.38,43.21,384c13.69-8.05,14.57-25.39,3.71-43.86-7.31-12.44-17.58-16.32-28.82-9.71l-7.51,4.42ZM35,382.2,17.46,337.41l3.36-2c8.13-4.77,15.81-1.59,21.43,8,8.89,15.14,8.55,29.52-2,35.69Z"/><path class="cls-2" d="M68.89,368.89l22.89-13.45-2.16-5.57L71.46,360.54l-8.08-20.91,14.82-8.71L76,325.34l-14.9,8.76-7.06-18,17.59-10.34-2.17-5.57L47.15,313.34Z"/><path class="cls-2" d="M106.51,346.78l5.74-3.37-8.68-63.23-5.17,3,5.39,34.8c1,6.65,2.26,13.79,3.42,20.49l-.25.14c-3.51-5.44-7.21-10.91-10.77-16.16L77.92,295.26,73,298.14Z"/><path class="cls-2" d="M146.19,323.46l6-3.51L145,282.46c-1-4.87-1.87-9.56-3.06-14.25l.25-.15c2.26,4.11,4.63,8.28,6.84,12l18.66,30.74,6.08-3.57-13.18-60.59-4.7,2.77,7.63,33.09c1.49,6.43,3,13,4.55,19.51l-.24.14c-3.23-5.52-6.49-11.1-9.78-16.43l-17-27.61-4.35,2.55L143,294.58c1.38,6.5,2.62,13.27,3.92,19.88l-.24.14c-2.92-5.66-6.1-11.25-9.07-16.85L121.8,269.47l-4.9,2.88Z"/><path class="cls-2" d="M189.15,298.21,212,284.76l-2.17-5.57-18.16,10.67-8.07-20.92,14.82-8.71-2.17-5.57-14.89,8.76-7.07-18,17.59-10.34-2.16-5.57-22.35,13.13Z"/><path class="cls-2" d="M220.22,280l13-7.64c9.63-5.66,13.91-14.82,7.27-26.11-3.42-5.81-8.59-7.2-13.47-5.94l-.14-.34a15.1,15.1,0,0,0,1.56-18c-4.31-7.32-11.39-8.4-19.15-3.84l-10.82,6.36Zm-7.6-34.42-7.33-18.75,5.57-3.28c6.13-3.6,10.47-2.49,13.2,2.16,3.37,5.72,2.1,11.91-5.61,16.44ZM222.94,272l-8.42-21.71,7.14-4.2c6-3.51,11.33-1.93,14.35,3.21,4.61,7.84,1.67,14-6,18.54Z"/><path class="cls-2" d="M284.37,243.49c4.9-2.88,7.1-7.72,8.21-12.7l-4.48-2.59c-1,4.34-2.66,7.67-5.93,9.59-7.23,4.25-14.21-.56-19.63-9.79-7.23-12.3-9.39-30,.24-35.65,3.11-1.82,6.59-.89,10.08,1.47l1.52-5.17c-4.55-3.09-9.78-4.37-14.39-1.65-12.56,7.38-11.41,28.46-2,44.46C265.12,243.61,275.14,248.92,284.37,243.49Z"/><path class="cls-2" d="M315.12,225.42c11.64-6.84,10.4-27.48,1.29-43-7.55-12.84-17.47-18.34-26.5-13-11.64,6.84-10.4,27.49-1.29,43C296.16,225.23,306.09,230.73,315.12,225.42Zm-2.8-5.35c-6.44,3.78-13.26-1.12-19.08-11-7-11.9-9.24-29.15-.53-34.27,6.44-3.78,13.25,1.12,19.08,11C318.79,197.7,321,215,312.32,220.07Z"/><path class="cls-2" d="M338.12,210.65,349,204.26c13.69-8,14.57-25.39,3.71-43.86-7.31-12.45-17.57-16.32-28.81-9.72l-7.52,4.42Zm2.67-8.18-17.54-44.79,3.37-2c8.13-4.78,15.81-1.6,21.42,8,8.9,15.13,8.55,29.52-1.94,35.69Z"/><path class="cls-2" d="M374.69,189.16l22.89-13.46-2.17-5.57-18.16,10.68-8.07-20.92L384,151.18l-2.17-5.57-14.9,8.75-7.06-18L377.46,126l-2.16-5.57L353,133.61Z"/><path class="cls-2" d="M421.33,162.38,432.21,156c13.69-8.05,14.57-25.39,3.71-43.86-7.31-12.44-17.58-16.32-28.82-9.71l-7.51,4.42ZM424,154.2l-17.54-44.79,3.36-2c8.13-4.77,15.81-1.59,21.43,8,8.89,15.14,8.55,29.52-1.95,35.69Z"/><path class="cls-2" d="M457.89,140.89l22.89-13.45-2.16-5.57-18.16,10.67-8.08-20.91,14.82-8.71L465,97.34l-14.9,8.76-7.06-18,17.59-10.34-2.17-5.57L436.15,85.34Z"/><path class="cls-2" d="M495.51,118.78l5.74-3.37-8.68-63.23-5.17,3L492.79,90c1,6.65,2.26,13.79,3.42,20.49l-.25.14c-3.51-5.44-7.21-10.91-10.77-16.16L466.92,67.26,462,70.14Z"/><path class="cls-2" d="M166.33,403.38,177.21,397c13.69-8.05,14.57-25.39,3.71-43.86-7.31-12.44-17.58-16.32-28.82-9.71l-7.51,4.42ZM169,395.2l-17.54-44.79,3.36-2c8.13-4.77,15.81-1.59,21.43,8,8.89,15.14,8.55,29.52-1.95,35.69Z"/><path class="cls-2" d="M202.89,381.89l22.89-13.45-2.16-5.57-18.16,10.67-8.08-20.91,14.82-8.71L210,338.34l-14.9,8.76-7.06-18,17.59-10.34-2.17-5.57-22.35,13.13Z"/><path class="cls-2" d="M240.51,359.78l5.74-3.37-8.68-63.23-5.17,3,5.39,34.8c1,6.65,2.26,13.79,3.42,20.49l-.25.14c-3.51-5.44-7.21-10.91-10.77-16.16l-18.27-27.23L207,311.14Z"/><path class="cls-2" d="M280.19,336.46l6-3.51L279,295.46c-1-4.87-1.87-9.56-3.06-14.25l.25-.15c2.26,4.11,4.63,8.28,6.84,12l18.66,30.74,6.08-3.57-13.18-60.59-4.7,2.77,7.63,33.09c1.49,6.43,3,13,4.55,19.51l-.24.14c-3.23-5.52-6.49-11.1-9.78-16.43l-17-27.61-4.35,2.55L277,307.58c1.38,6.5,2.62,13.27,3.92,19.88l-.24.14c-2.92-5.66-6.1-11.25-9.07-16.85L255.8,282.47l-4.9,2.88Z"/><path class="cls-2" d="M323.15,311.21,346,297.76l-2.17-5.57-18.16,10.67-8.07-20.92,14.82-8.71-2.17-5.57-14.89,8.76-7.07-18,17.59-10.34-2.16-5.57-22.35,13.13Z"/><path class="cls-2" d="M354.22,293l13-7.64c9.63-5.66,13.91-14.82,7.27-26.11-3.42-5.81-8.59-7.2-13.47-5.94l-.14-.34a15.1,15.1,0,0,0,1.56-18c-4.31-7.32-11.39-8.4-19.15-3.84l-10.82,6.36Zm-7.6-34.42-7.33-18.75,5.57-3.28c6.13-3.6,10.47-2.49,13.2,2.16,3.37,5.72,2.1,11.91-5.61,16.44ZM356.94,285l-8.42-21.71,7.14-4.2c6-3.51,11.33-1.93,14.35,3.21,4.61,7.84,1.67,14-6,18.54Z"/><path class="cls-2" d="M418.37,256.49c4.9-2.88,7.1-7.72,8.21-12.7l-4.48-2.59c-1,4.34-2.66,7.67-5.93,9.59-7.23,4.25-14.21-.56-19.63-9.79-7.23-12.3-9.39-30,.24-35.65,3.11-1.82,6.59-.89,10.08,1.47l1.52-5.17c-4.55-3.09-9.78-4.37-14.39-1.65-12.56,7.38-11.41,28.46-2,44.46C399.12,256.61,409.14,261.92,418.37,256.49Z"/><path class="cls-2" d="M449.12,238.42c11.64-6.84,10.4-27.48,1.29-43-7.55-12.84-17.47-18.34-26.5-13-11.64,6.84-10.4,27.49-1.29,43C430.16,238.23,440.09,243.73,449.12,238.42Zm-2.8-5.35c-6.44,3.78-13.26-1.12-19.08-11-7-11.9-9.24-29.15-.53-34.27,6.44-3.78,13.25,1.12,19.08,11C452.79,210.7,455,228,446.32,233.07Z"/><path class="cls-2" d="M472.12,223.65,483,217.26c13.69-8,14.57-25.39,3.71-43.86-7.31-12.45-17.57-16.32-28.81-9.72l-7.52,4.42Zm2.67-8.18-17.54-44.79,3.37-2c8.13-4.78,15.81-1.6,21.42,8,8.9,15.13,8.55,29.52-1.94,35.69Z"/><path class="cls-2" d="M354.33,390.38,365.21,384c13.69-8.05,14.57-25.39,3.71-43.86-7.31-12.44-17.58-16.32-28.82-9.71l-7.51,4.42ZM357,382.2l-17.54-44.79,3.36-2c8.13-4.77,15.81-1.59,21.43,8,8.89,15.14,8.55,29.52-1.95,35.69Z"/><path class="cls-2" d="M390.89,368.89l22.89-13.45-2.16-5.57-18.16,10.67-8.08-20.91,14.82-8.71L398,325.34l-14.9,8.76-7.06-18,17.59-10.34-2.17-5.57-22.35,13.13Z"/><path class="cls-2" d="M428.51,346.78l5.74-3.37-8.68-63.23-5.17,3,5.39,34.8c1,6.65,2.26,13.79,3.42,20.49l-.25.14c-3.51-5.44-7.21-10.91-10.77-16.16l-18.27-27.23L395,298.14Z"/><path class="cls-2" d="M468.19,323.46l6-3.51L467,282.46c-1-4.87-1.87-9.56-3.06-14.25l.25-.15c2.26,4.11,4.63,8.28,6.84,12l18.66,30.74,6.08-3.57-13.18-60.59-4.7,2.77,7.63,33.09c1.49,6.43,3,13,4.55,19.51l-.24.14c-3.23-5.52-6.49-11.1-9.78-16.43l-17-27.61-4.35,2.55L465,294.58c1.38,6.5,2.62,13.27,3.92,19.88l-.24.14c-2.92-5.66-6.1-11.25-9.07-16.85L443.8,269.47l-4.9,2.88Z"/><path class="cls-2" d="M458.16,153.26l6.07-3.37L458,112.24c-.9-4.89-1.64-9.6-2.72-14.32l.25-.14c2.16,4.16,4.44,8.39,6.55,12.19L480,141.15l6.16-3.42-11.7-60.89-4.77,2.65,6.83,33.27c1.33,6.47,2.67,13.08,4.08,19.61l-.25.14c-3.09-5.6-6.22-11.25-9.37-16.66l-16.3-28-4.41,2.45,5.47,34c1.21,6.53,2.29,13.33,3.44,20l-.25.14c-2.78-5.74-5.83-11.4-8.66-17.07L435.08,98.7l-5,2.76Z"/><path class="cls-2" d="M501.72,129.06l23.21-12.9-2-5.62-18.41,10.23-7.57-21.11,15-8.34-2-5.63-15.1,8.4-6.62-18.15L506,66l-2-5.62L481.33,73Z"/><path class="cls-2" d="M533.22,111.55l13.19-7.33c9.76-5.42,14.26-14.47,7.9-25.91C551,72.41,545.89,70.9,541,72l-.13-.34a15.08,15.08,0,0,0,2-18c-4.12-7.42-11.17-8.67-19-4.3l-11,6.09ZM526.46,77,519.59,58l5.65-3.14c6.21-3.45,10.52-2.24,13.14,2.47,3.23,5.8,1.8,12-6,16.3Zm9.67,26.69-7.89-21.91,7.25-4c6-3.36,11.37-1.64,14.26,3.56,4.42,7.95,1.33,14.07-6.45,18.39Z"/><path class="cls-2" d="M598.24,76.65c5-2.76,7.28-7.54,8.51-12.5l-4.42-2.69c-1.09,4.31-2.84,7.6-6.16,9.44C588.84,75,582,70,576.79,60.64c-6.93-12.47-8.66-30.21,1.1-35.63,3.15-1.75,6.61-.73,10,1.71l1.65-5.13c-4.48-3.2-9.67-4.6-14.35-2-12.74,7.08-12.1,28.18-3.09,44.39C579,76.3,588.88,81.86,598.24,76.65Z"/><path class="cls-2" d="M629.41,59.33c11.8-6.55,11.06-27.22,2.33-42.94-7.23-13-17-18.75-26.17-13.66-11.8,6.56-11.06,27.23-2.33,42.94C610.47,58.68,620.26,64.42,629.41,59.33Zm-2.67-5.42c-6.52,3.63-13.22-1.44-18.81-11.49-6.7-12.06-8.53-29.36.3-34.27,6.53-3.63,13.23,1.44,18.82,11.49C633.75,31.71,635.57,49,626.74,53.91Z"/><path class="cls-2" d="M652.77,45.12l11-6.13c13.88-7.71,15.18-25,4.77-43.75-7-12.62-17.18-16.74-28.57-10.41l-7.62,4.23ZM655.63,37,639.18-8.2l3.41-1.89c8.25-4.58,15.85-1.21,21.23,8.47C672.35,13.73,671.65,28.1,661,34Z"/><path class="cls-2" d="M689.84,24.52l23.21-12.9L711,6,692.61,16.23,685-4.87l15-8.35-2-5.62-15.11,8.39L676.31-28.6l17.83-9.91-2-5.62L669.45-31.54Z"/><path class="cls-2" d="M493.48,220.61l13.12-7.44c9.71-5.51,14.14-14.6,7.68-26-3.33-5.87-8.48-7.33-13.38-6.15l-.14-.34a15.08,15.08,0,0,0,1.84-18c-4.19-7.39-11.25-8.58-19.08-4.14l-10.92,6.19Zm-7.06-34.54-7-18.86L485,164c6.18-3.51,10.51-2.33,13.17,2.35,3.28,5.78,1.91,12-5.87,16.35Zm9.9,26.6-8.08-21.84,7.21-4.09c6-3.41,11.36-1.74,14.3,3.44,4.48,7.91,1.45,14.06-6.29,18.45Z"/><path class="cls-2" d="M558.19,185.15c4.95-2.8,7.22-7.61,8.41-12.57l-4.45-2.66c-1,4.32-2.77,7.62-6.07,9.49-7.3,4.14-14.2-.78-19.48-10.09-7-12.41-8.92-30.13.8-35.64,3.13-1.77,6.6-.79,10.05,1.62l1.61-5.14c-4.51-3.16-9.72-4.52-14.37-1.88-12.68,7.19-11.85,28.29-2.7,44.43C538.94,185,548.88,190.43,558.19,185.15Z"/><path class="cls-2" d="M589.21,167.56c11.75-6.66,10.83-27.32,2-43-7.34-12.95-17.18-18.6-26.29-13.44-11.74,6.66-10.83,27.32-2,43C570.27,167.07,580.1,172.73,589.21,167.56Zm-2.71-5.4c-6.5,3.69-13.24-1.32-18.91-11.33-6.81-12-8.78-29.29,0-34.27,6.5-3.68,13.24,1.33,18.91,11.33C593.31,139.9,595.29,157.18,586.5,162.16Z"/><path class="cls-2" d="M612.45,153.15l11-6.23c13.82-7.83,15-25.16,4.4-43.79C620.7,90.57,610.49,86.53,599.15,93l-7.58,4.3Zm2.79-8.14L598.4,100,601.79,98c8.21-4.65,15.84-1.35,21.3,8.29,8.66,15.27,8.09,29.65-2.5,35.66Z"/><path class="cls-2" d="M649.34,132.22l23.1-13.09-2.08-5.61L652,123.91l-7.76-21,15-8.47-2.08-5.61-15,8.52-6.78-18.09,17.74-10.06L651,63.56,628.46,76.34Z"/><path class="cls-2" d="M509.82,305.06c4.9-2.88,7.09-7.72,8.21-12.7l-4.49-2.59c-1,4.34-2.66,7.66-5.93,9.59-7.23,4.25-14.2-.56-19.63-9.79-7.23-12.3-9.38-30,.25-35.65,3.1-1.82,6.59-.89,10.07,1.47l1.53-5.17c-4.55-3.09-9.78-4.37-14.4-1.65C472.87,256,474,277,483.42,293,490.56,305.17,500.59,310.48,509.82,305.06Z"/><path class="cls-2" d="M540.56,287c11.64-6.84,10.4-27.49,1.29-43-7.54-12.84-17.46-18.34-26.5-13-11.63,6.84-10.39,27.48-1.29,43C521.61,286.8,531.53,292.3,540.56,287Zm-2.8-5.35c-6.43,3.78-13.25-1.12-19.08-11-7-11.9-9.24-29.15-.53-34.27,6.44-3.78,13.26,1.12,19.09,11C544.23,259.26,546.47,276.52,537.76,281.64Z"/><path class="cls-2" d="M563.57,272.22l10.87-6.4c13.7-8,14.58-25.38,3.72-43.86-7.31-12.44-17.58-16.32-28.82-9.71l-7.51,4.42Zm2.66-8.18-17.53-44.8,3.36-2c8.13-4.78,15.81-1.6,21.43,8,8.89,15.13,8.55,29.52-2,35.69Z"/><path class="cls-2" d="M600.14,250.72,623,237.27l-2.16-5.57L602.7,242.37l-8.08-20.91,14.82-8.71-2.16-5.57-14.9,8.75-7.06-18,17.59-10.34L600.74,182l-22.35,13.14Z"/><path class="cls-2" d="M505.53,390.38,516.4,384c13.7-8.05,14.58-25.39,3.72-43.86-7.32-12.44-17.58-16.32-28.82-9.71l-7.51,4.42Zm2.66-8.18-17.53-44.79,3.36-2c8.13-4.77,15.81-1.59,21.43,8,8.89,15.14,8.55,29.52-2,35.69Z"/><path class="cls-2" d="M542.09,368.89,565,355.44l-2.16-5.57-18.16,10.67-8.08-20.91,14.82-8.71-2.17-5.58-14.89,8.76-7.06-18,17.59-10.34-2.17-5.57-22.35,13.13Z"/><path class="cls-2" d="M579.71,346.78l5.73-3.37-8.67-63.23-5.17,3L577,318c1,6.65,2.26,13.79,3.42,20.49l-.25.14c-3.51-5.44-7.21-10.91-10.77-16.16l-18.27-27.23-4.91,2.88Z"/><path class="cls-2" d="M619.39,323.46l6-3.51-7.18-37.49c-1-4.87-1.87-9.56-3.06-14.25l.25-.15c2.26,4.11,4.63,8.28,6.84,12l18.66,30.74,6.07-3.57-13.17-60.59-4.7,2.77,7.63,33.09c1.49,6.43,3,13,4.55,19.51l-.25.14c-3.22-5.52-6.48-11.1-9.77-16.43l-17-27.61-4.35,2.55,6.28,33.89c1.37,6.5,2.62,13.27,3.92,19.88l-.24.14c-2.92-5.66-6.1-11.25-9.07-16.85L595,269.47l-4.9,2.88Z"/><path class="cls-2" d="M662.35,298.21l22.89-13.45-2.17-5.57-18.16,10.67-8.07-20.92,14.81-8.71-2.16-5.57-14.9,8.76-7.06-18,17.59-10.34L663,229.53l-22.35,13.13Z"/><path class="cls-2" d="M693.41,280l13-7.64c9.62-5.66,13.91-14.82,7.27-26.11-3.42-5.81-8.59-7.2-13.47-5.94l-.14-.34a15.08,15.08,0,0,0,1.55-18c-4.3-7.32-11.38-8.4-19.14-3.84l-10.82,6.36Zm-7.59-34.42-7.33-18.75,5.57-3.28c6.13-3.6,10.47-2.49,13.2,2.16,3.37,5.72,2.09,11.91-5.61,16.44ZM696.13,272l-8.42-21.71,7.15-4.2c6-3.51,11.33-1.93,14.35,3.21,4.61,7.84,1.67,14-6,18.54Z"/><path class="cls-2" d="M757.57,243.49c4.9-2.88,7.1-7.72,8.21-12.7l-4.48-2.59c-1,4.34-2.66,7.67-5.93,9.59-7.23,4.25-14.21-.56-19.63-9.79-7.23-12.3-9.39-30,.24-35.65,3.1-1.82,6.59-.89,10.08,1.47l1.52-5.17c-4.55-3.09-9.78-4.37-14.4-1.65-12.55,7.38-11.4,28.46-2,44.46C738.32,243.61,748.34,248.92,757.57,243.49Z"/><path class="cls-2" d="M788.31,225.42c11.64-6.84,10.41-27.48,1.3-43-7.55-12.84-17.47-18.34-26.5-13-11.64,6.84-10.4,27.49-1.29,43C769.36,225.23,779.29,230.73,788.31,225.42Zm-2.79-5.35c-6.44,3.78-13.26-1.12-19.09-11-7-11.9-9.23-29.15-.52-34.27,6.43-3.78,13.25,1.12,19.08,11C792,197.7,794.22,215,785.52,220.07Z"/><path class="cls-2" d="M811.32,210.65l10.88-6.39c13.69-8,14.57-25.39,3.71-43.86-7.31-12.45-17.58-16.32-28.82-9.72l-7.51,4.42Zm2.67-8.18-17.54-44.79,3.36-2c8.13-4.78,15.81-1.6,21.43,8,8.9,15.13,8.55,29.52-1.94,35.69Z"/><path class="cls-2" d="M847.89,189.16l22.89-13.46-2.17-5.57-18.16,10.68-8.07-20.92,14.81-8.71L855,145.61l-14.9,8.75-7.06-18L850.66,126l-2.16-5.57-22.36,13.14Z"/><path class="cls-2" d="M-306.87,32-296,25.58c13.69-8,14.57-25.39,3.71-43.86C-299.59-30.73-309.86-34.6-321.1-28l-7.51,4.42Zm2.67-8.18L-321.74-21l3.37-2c8.12-4.78,15.8-1.6,21.42,8,8.89,15.13,8.55,29.52-1.95,35.69Z"/><path class="cls-2" d="M-270.3,10.48-247.41-3l-2.17-5.57L-267.74,2.13l-8.08-20.92L-261-27.5l-2.16-5.57-14.9,8.76-7.06-18,17.59-10.33-2.17-5.58L-292-45.07Z"/><path class="cls-2" d="M-232.69-11.63l5.74-3.37-8.68-63.23-5.17,3,5.39,34.8c1,6.64,2.26,13.78,3.42,20.48l-.24.15c-3.52-5.45-7.22-10.92-10.78-16.17l-18.27-27.23-4.91,2.89Z"/><path class="cls-2" d="M-193-34.95l6-3.52L-194.2-76c-1-4.86-1.88-9.55-3.07-14.25l.25-.14c2.26,4.1,4.64,8.28,6.84,12l18.66,30.74,6.08-3.57-13.18-60.59-4.7,2.76,7.63,33.1c1.49,6.43,3,13,4.56,19.5l-.25.15c-3.23-5.52-6.49-11.1-9.78-16.44l-17-27.61-4.35,2.56,6.28,33.89c1.38,6.5,2.62,13.26,3.93,19.87l-.25.15c-2.92-5.67-6.1-11.26-9.07-16.85L-217.4-88.94l-4.9,2.88Z"/><path class="cls-2" d="M-150-60.2l22.89-13.46-2.16-5.57-18.16,10.68-8.08-20.92,14.82-8.71-2.17-5.57L-157.8-95l-7.06-18,17.58-10.34-2.16-5.57-22.35,13.14Z"/><path class="cls-2" d="M-119-78.46l13-7.65c9.62-5.65,13.9-14.81,7.27-26.1-3.42-5.82-8.6-7.2-13.48-5.94l-.14-.34a15.1,15.1,0,0,0,1.56-18c-4.31-7.32-11.38-8.4-19.15-3.84L-140.72-134Zm-7.6-34.43-7.33-18.74,5.58-3.28c6.12-3.6,10.47-2.49,13.2,2.15,3.36,5.73,2.09,11.91-5.62,16.44Zm10.32,26.44-8.42-21.71,7.14-4.2c6-3.51,11.33-1.92,14.35,3.21,4.61,7.85,1.67,14-6,18.55Z"/><path class="cls-2" d="M-54.82-114.92c4.9-2.88,7.09-7.72,8.2-12.71l-4.48-2.58c-1,4.34-2.66,7.66-5.93,9.59-7.23,4.25-14.21-.57-19.63-9.8-7.23-12.3-9.38-30,.25-35.64,3.1-1.83,6.59-.89,10.07,1.46l1.53-5.16c-4.56-3.09-9.79-4.37-14.4-1.66-12.56,7.39-11.41,28.47-2,44.46C-74.08-114.81-64.06-109.5-54.82-114.92Z"/><path class="cls-2" d="M-24.08-133c11.64-6.84,10.4-27.49,1.29-43-7.54-12.83-17.47-18.33-26.5-13-11.64,6.84-10.4,27.48-1.29,43C-43-133.19-33.11-127.69-24.08-133Zm-2.8-5.36c-6.44,3.79-13.26-1.12-19.08-11-7-11.9-9.24-29.15-.53-34.27,6.44-3.78,13.26,1.12,19.08,11C-20.41-160.72-18.17-143.46-26.88-138.35Z"/><path class="cls-2" d="M-1.07-147.76l10.87-6.4c13.69-8.05,14.57-25.39,3.72-43.86C6.2-210.46-4.06-214.34-15.3-207.73l-7.52,4.42Zm2.66-8.19-17.53-44.79,3.36-2c8.13-4.78,15.81-1.6,21.42,8,8.9,15.14,8.55,29.53-1.94,35.69Z"/><path class="cls-2" d="M-118.87,19-108,12.58c13.69-8,14.57-25.39,3.71-43.86C-111.59-43.73-121.86-47.6-133.1-41l-7.51,4.42Zm2.67-8.18L-133.74-34l3.37-2c8.12-4.78,15.8-1.6,21.42,8,8.89,15.13,8.55,29.52-2,35.69Z"/><path class="cls-2" d="M-82.3-2.52-59.41-16l-2.17-5.57L-79.74-10.87l-8.08-20.92L-73-40.5l-2.16-5.57-14.9,8.76-7.06-18,17.59-10.33-2.17-5.58L-104-58.07Z"/><path class="cls-2" d="M-44.69-24.63-38.95-28l-8.68-63.23-5.17,3,5.39,34.8c1,6.64,2.26,13.78,3.42,20.48l-.24.15C-47.75-38.21-51.45-43.68-55-48.93L-73.28-76.16l-4.91,2.89Z"/><path class="cls-2" d="M-5-47.95l6-3.52L-6.2-89c-1-4.86-1.88-9.55-3.07-14.25l.25-.14c2.26,4.1,4.64,8.28,6.84,12L16.48-60.58l6.08-3.57L9.38-124.74,4.68-122l7.63,33.1c1.49,6.43,3,13,4.56,19.5l-.25.15c-3.23-5.52-6.49-11.1-9.78-16.44l-17-27.61-4.35,2.56,6.28,33.89C-6.81-70.33-5.57-63.57-4.26-57l-.25.15c-2.92-5.67-6.1-11.26-9.07-16.85L-29.4-101.94l-4.9,2.88Z"/><path class="cls-2" d="M32.33,19l10.88-6.39c13.69-8,14.57-25.39,3.71-43.86C39.61-43.73,29.34-47.6,18.1-41l-7.51,4.42ZM35,10.79,17.46-34l3.36-2c8.13-4.78,15.81-1.6,21.43,8,8.89,15.13,8.55,29.52-2,35.69Z"/><path class="cls-2" d="M68.89-2.52,91.78-16l-2.16-5.57L71.46-10.87,63.38-31.79,78.2-40.5,76-46.07l-14.9,8.76-7.06-18L71.67-65.63,69.5-71.21,47.15-58.07Z"/><path class="cls-2" d="M106.51-24.63,112.25-28l-8.68-63.23-5.17,3,5.39,34.8c1,6.64,2.26,13.78,3.42,20.48l-.25.15c-3.51-5.45-7.21-10.92-10.77-16.17L77.92-76.16,73-73.27Z"/><path class="cls-2" d="M146.19-47.95l6-3.52L145-89c-1-4.86-1.87-9.55-3.06-14.25l.25-.14c2.26,4.1,4.63,8.28,6.84,12l18.66,30.74,6.08-3.57-13.18-60.59-4.7,2.76,7.63,33.1c1.49,6.43,3,13,4.55,19.5l-.24.15c-3.23-5.52-6.49-11.1-9.78-16.44l-17-27.61-4.35,2.56L143-76.83c1.38,6.5,2.62,13.26,3.92,19.87l-.24.15c-2.92-5.67-6.1-11.26-9.07-16.85L121.8-101.94l-4.9,2.88Z"/><path class="cls-2" d="M189.15-73.2,212-86.66l-2.17-5.57L191.71-81.55l-8.07-20.92,14.82-8.71-2.17-5.57L181.4-108l-7.07-18,17.59-10.34-2.16-5.57-22.35,13.14Z"/><path class="cls-2" d="M220.22-91.46l13-7.65c9.63-5.65,13.91-14.81,7.27-26.1-3.42-5.82-8.59-7.2-13.47-5.94l-.14-.34a15.1,15.1,0,0,0,1.56-18c-4.31-7.32-11.39-8.4-19.15-3.84L198.47-147Zm-7.6-34.43-7.33-18.74,5.57-3.28c6.13-3.6,10.47-2.49,13.2,2.15,3.37,5.73,2.1,11.91-5.61,16.44Zm10.32,26.44-8.42-21.71,7.14-4.2c6-3.51,11.33-1.92,14.35,3.21,4.61,7.85,1.67,14-6,18.55Z"/><path class="cls-2" d="M284.37-127.92c4.9-2.88,7.1-7.72,8.21-12.71l-4.48-2.58c-1,4.34-2.66,7.66-5.93,9.59-7.23,4.25-14.21-.57-19.63-9.8-7.23-12.3-9.39-30,.24-35.64,3.11-1.83,6.59-.89,10.08,1.46l1.52-5.16c-4.55-3.09-9.78-4.37-14.39-1.66-12.56,7.39-11.41,28.47-2,44.46C265.12-127.81,275.14-122.5,284.37-127.92Z"/><path class="cls-2" d="M315.12-146c11.64-6.84,10.4-27.49,1.29-43-7.55-12.83-17.47-18.33-26.5-13-11.64,6.84-10.4,27.48-1.29,43C296.16-146.19,306.09-140.69,315.12-146Zm-2.8-5.36c-6.44,3.79-13.26-1.12-19.08-11-7-11.9-9.24-29.15-.53-34.27,6.44-3.78,13.25,1.12,19.08,11C318.79-173.72,321-156.46,312.32-151.35Z"/><path class="cls-2" d="M338.12-160.76l10.88-6.4c13.69-8.05,14.57-25.39,3.71-43.86-7.31-12.44-17.57-16.32-28.81-9.71l-7.52,4.42Zm2.67-8.19-17.54-44.79,3.37-2c8.13-4.78,15.81-1.6,21.42,8,8.9,15.14,8.55,29.53-1.94,35.69Z"/><path class="cls-2" d="M374.69-182.26l22.89-13.45-2.17-5.57-18.16,10.67-8.07-20.91L384-220.23l-2.17-5.58L366.93-217l-7.06-18,17.59-10.34-2.16-5.57L353-237.81Z"/><path class="cls-2" d="M166.33,32l10.88-6.39c13.69-8,14.57-25.39,3.71-43.86C173.61-30.73,163.34-34.6,152.1-28l-7.51,4.42ZM169,23.79,151.46-21l3.36-2c8.13-4.78,15.81-1.6,21.43,8C185.14.11,184.8,14.5,174.3,20.67Z"/><path class="cls-2" d="M202.89,10.48,225.78-3l-2.16-5.57L205.46,2.13l-8.08-20.92L212.2-27.5,210-33.07l-14.9,8.76-7.06-18,17.59-10.33-2.17-5.58L181.15-45.07Z"/><path class="cls-2" d="M240.51-11.63,246.25-15l-8.68-63.23-5.17,3,5.39,34.8c1,6.64,2.26,13.78,3.42,20.48l-.25.15c-3.51-5.45-7.21-10.92-10.77-16.17L211.92-63.16,207-60.27Z"/><path class="cls-2" d="M280.19-34.95l6-3.52L279-76c-1-4.86-1.87-9.55-3.06-14.25l.25-.14c2.26,4.1,4.63,8.28,6.84,12l18.66,30.74,6.08-3.57-13.18-60.59-4.7,2.76,7.63,33.1c1.49,6.43,3,13,4.55,19.5l-.24.15c-3.23-5.52-6.49-11.1-9.78-16.44l-17-27.61-4.35,2.56L277-63.83c1.38,6.5,2.62,13.26,3.92,19.87l-.24.15c-2.92-5.67-6.1-11.26-9.07-16.85L255.8-88.94l-4.9,2.88Z"/><path class="cls-2" d="M323.15-60.2,346-73.66l-2.17-5.57L325.71-68.55l-8.07-20.92,14.82-8.71-2.17-5.57L315.4-95l-7.07-18,17.59-10.34-2.16-5.57-22.35,13.14Z"/><path class="cls-2" d="M354.22-78.46l13-7.65c9.63-5.65,13.91-14.81,7.27-26.1-3.42-5.82-8.59-7.2-13.47-5.94l-.14-.34a15.1,15.1,0,0,0,1.56-18c-4.31-7.32-11.39-8.4-19.15-3.84L332.47-134Zm-7.6-34.43-7.33-18.74,5.57-3.28c6.13-3.6,10.47-2.49,13.2,2.15,3.37,5.73,2.1,11.91-5.61,16.44Zm10.32,26.44-8.42-21.71,7.14-4.2c6-3.51,11.33-1.92,14.35,3.21,4.61,7.85,1.67,14-6,18.55Z"/><path class="cls-2" d="M418.37-114.92c4.9-2.88,7.1-7.72,8.21-12.71l-4.48-2.58c-1,4.34-2.66,7.66-5.93,9.59-7.23,4.25-14.21-.57-19.63-9.8-7.23-12.3-9.39-30,.24-35.64,3.11-1.83,6.59-.89,10.08,1.46l1.52-5.16c-4.55-3.09-9.78-4.37-14.39-1.66-12.56,7.39-11.41,28.47-2,44.46C399.12-114.81,409.14-109.5,418.37-114.92Z"/><path class="cls-2" d="M449.12-133c11.64-6.84,10.4-27.49,1.29-43-7.55-12.83-17.47-18.33-26.5-13-11.64,6.84-10.4,27.48-1.29,43C430.16-133.19,440.09-127.69,449.12-133Zm-2.8-5.36c-6.44,3.79-13.26-1.12-19.08-11-7-11.9-9.24-29.15-.53-34.27,6.44-3.78,13.25,1.12,19.08,11C452.79-160.72,455-143.46,446.32-138.35Z"/><path class="cls-2" d="M472.12-147.76l10.88-6.4c13.69-8.05,14.57-25.39,3.71-43.86-7.31-12.44-17.57-16.32-28.81-9.71l-7.52,4.42Zm2.67-8.19-17.54-44.79,3.37-2c8.13-4.78,15.81-1.6,21.42,8,8.9,15.14,8.55,29.53-1.94,35.69Z"/><path class="cls-2" d="M354.33,19l10.88-6.39c13.69-8,14.57-25.39,3.71-43.86C361.61-43.73,351.34-47.6,340.1-41l-7.51,4.42ZM357,10.79,339.46-34l3.36-2c8.13-4.78,15.81-1.6,21.43,8,8.89,15.13,8.55,29.52-1.95,35.69Z"/><path class="cls-2" d="M390.89-2.52,413.78-16l-2.16-5.57L393.46-10.87l-8.08-20.92L400.2-40.5,398-46.07l-14.9,8.76-7.06-18,17.59-10.33-2.17-5.58L369.15-58.07Z"/><path class="cls-2" d="M428.51-24.63,434.25-28l-8.68-63.23-5.17,3,5.39,34.8c1,6.64,2.26,13.78,3.42,20.48l-.25.15c-3.51-5.45-7.21-10.92-10.77-16.17L399.92-76.16,395-73.27Z"/><path class="cls-2" d="M468.19-47.95l6-3.52L467-89c-1-4.86-1.87-9.55-3.06-14.25l.25-.14c2.26,4.1,4.63,8.28,6.84,12l18.66,30.74,6.08-3.57-13.18-60.59-4.7,2.76,7.63,33.1c1.49,6.43,3,13,4.55,19.5l-.24.15c-3.23-5.52-6.49-11.1-9.78-16.44l-17-27.61-4.35,2.56L465-76.83c1.38,6.5,2.62,13.26,3.92,19.87l-.24.15c-2.92-5.67-6.1-11.26-9.07-16.85L443.8-101.94l-4.9,2.88Z"/><path class="cls-2" d="M505.53,19l10.87-6.39c13.7-8,14.58-25.39,3.72-43.86C512.8-43.73,502.54-47.6,491.3-41l-7.51,4.42Zm2.66-8.18L490.66-34,494-36c8.13-4.78,15.81-1.6,21.43,8,8.89,15.13,8.55,29.52-2,35.69Z"/><path class="cls-2" d="M542.09-2.52,565-16l-2.16-5.57L544.66-10.87l-8.08-20.92L551.4-40.5l-2.17-5.57-14.89,8.76-7.06-18,17.59-10.33-2.17-5.58L520.35-58.07Z"/><path class="cls-2" d="M579.71-24.63,585.44-28l-8.67-63.23-5.17,3L577-53.39c1,6.64,2.26,13.78,3.42,20.48l-.25.15c-3.51-5.45-7.21-10.92-10.77-16.17L551.12-76.16l-4.91,2.89Z"/><path class="cls-2" d="M619.39-47.95l6-3.52L618.19-89c-1-4.86-1.87-9.55-3.06-14.25l.25-.14c2.26,4.1,4.63,8.28,6.84,12l18.66,30.74L647-64.15l-13.17-60.59-4.7,2.76,7.63,33.1c1.49,6.43,3,13,4.55,19.5l-.25.15c-3.22-5.52-6.48-11.1-9.77-16.44l-17-27.61-4.35,2.56,6.28,33.89c1.37,6.5,2.62,13.26,3.92,19.87l-.24.15c-2.92-5.67-6.1-11.26-9.07-16.85L595-101.94l-4.9,2.88Z"/><path class="cls-2" d="M662.35-73.2l22.89-13.46-2.17-5.57L664.91-81.55l-8.07-20.92,14.81-8.71-2.16-5.57L654.59-108l-7.06-18,17.59-10.34L663-141.89l-22.35,13.14Z"/><path class="cls-2" d="M693.41-91.46l13-7.65c9.62-5.65,13.91-14.81,7.27-26.1-3.42-5.82-8.59-7.2-13.47-5.94l-.14-.34a15.08,15.08,0,0,0,1.55-18c-4.3-7.32-11.38-8.4-19.14-3.84L671.67-147Zm-7.59-34.43-7.33-18.74,5.57-3.28c6.13-3.6,10.47-2.49,13.2,2.15,3.37,5.73,2.09,11.91-5.61,16.44Zm10.31,26.44-8.42-21.71,7.15-4.2c6-3.51,11.33-1.92,14.35,3.21,4.61,7.85,1.67,14-6,18.55Z"/><path class="cls-2" d="M757.57-127.92c4.9-2.88,7.1-7.72,8.21-12.71l-4.48-2.58c-1,4.34-2.66,7.66-5.93,9.59-7.23,4.25-14.21-.57-19.63-9.8-7.23-12.3-9.39-30,.24-35.64,3.1-1.83,6.59-.89,10.08,1.46l1.52-5.16c-4.55-3.09-9.78-4.37-14.4-1.66-12.55,7.39-11.4,28.47-2,44.46C738.32-127.81,748.34-122.5,757.57-127.92Z"/><path class="cls-2" d="M788.31-146c11.64-6.84,10.41-27.49,1.3-43-7.55-12.83-17.47-18.33-26.5-13-11.64,6.84-10.4,27.48-1.29,43C769.36-146.19,779.29-140.69,788.31-146Zm-2.79-5.36c-6.44,3.79-13.26-1.12-19.09-11-7-11.9-9.23-29.15-.52-34.27,6.43-3.78,13.25,1.12,19.08,11C792-173.72,794.22-156.46,785.52-151.35Z"/><path class="cls-2" d="M811.32-160.76l10.88-6.4c13.69-8.05,14.57-25.39,3.71-43.86-7.31-12.44-17.58-16.32-28.82-9.71l-7.51,4.42Zm2.67-8.19-17.54-44.79,3.36-2c8.13-4.78,15.81-1.6,21.43,8,8.9,15.14,8.55,29.53-1.94,35.69Z"/><path class="cls-2" d="M847.89-182.26l22.89-13.45-2.17-5.57-18.16,10.67-8.07-20.91,14.81-8.71L855-225.81,840.13-217l-7.06-18,17.59-10.34-2.16-5.57-22.36,13.13Z"/></pattern></defs><title>bandeau</title><rect class="cls-3" width="1920" height="1080"/><rect class="cls-4" width="1920" height="1080"/></svg>